<svg xmlns="http://www.w3.org/2000/svg" xmlns:xlink="http://www.w3.org/1999/xlink" width="288" zoomAndPan="magnify" viewBox="0 0 216 57.749997" height="77" preserveAspectRatio="xMidYMid meet" version="1.0"><defs><g/><clipPath id="7912decaf6"><path d="M 30.875 6.351562 L 83.894531 6.351562 L 83.894531 51.15625 L 30.875 51.15625 Z M 30.875 6.351562 " clip-rule="nonzero"/></clipPath></defs><g clip-path="url(#7912decaf6)"><path fill="#1b68ff" d="M 83.507812 17.875 C 83.4375 16.628906 83.894531 15.234375 83.066406 14.148438 C 81.613281 13.75 80.167969 13.34375 78.710938 12.988281 C 78.632812 11.1875 78.777344 9.378906 78.644531 7.578125 C 78.433594 6.351562 76.941406 6.78125 76.074219 6.769531 C 68.558594 7.144531 61.636719 11.394531 57.21875 17.363281 C 52.46875 10.894531 44.679688 6.4375 36.523438 6.769531 C 36.363281 6.90625 36.035156 7.183594 35.867188 7.320312 C 35.621094 9.191406 35.855469 11.097656 35.753906 12.984375 C 34.101562 13.648438 31.660156 13.546875 30.875 15.449219 C 31.183594 16.199219 31.257812 17.011719 31.222656 17.824219 C 31.152344 27.367188 31.289062 36.90625 31.15625 46.445312 C 31.03125 47.164062 31.164062 48.433594 32.199219 48.210938 C 35.535156 46.996094 39.128906 46.558594 42.671875 46.765625 C 47.484375 47.140625 52.484375 48.269531 56.4375 51.152344 C 56.824219 51.152344 57.589844 51.152344 57.972656 51.15625 C 60.160156 49.476562 62.816406 48.5625 65.441406 47.804688 C 71.0625 46.230469 77.132812 46.378906 82.660156 48.265625 C 83.839844 48.066406 83.519531 46.773438 83.53125 45.917969 C 83.480469 36.574219 83.523438 27.222656 83.507812 17.875 Z M 33.230469 45.625 C 33.261719 35.773438 33.226562 25.914062 33.246094 16.0625 C 34.089844 15.761719 34.9375 15.460938 35.78125 15.167969 C 35.765625 23.035156 35.769531 30.90625 35.777344 38.773438 C 35.667969 40.207031 37.460938 39.953125 38.390625 40.046875 C 43.960938 40.277344 49.03125 43.109375 53.078125 46.785156 C 46.832031 44.265625 39.71875 43.695312 33.230469 45.625 Z M 60.425781 47.292969 C 63.511719 44.269531 67.074219 41.558594 71.308594 40.390625 C 73.488281 39.65625 75.796875 39.582031 78.0625 39.371094 C 78.796875 39.277344 78.644531 38.367188 78.695312 37.851562 C 78.691406 30.324219 78.6875 22.796875 78.691406 15.273438 C 79.601562 15.546875 80.507812 15.824219 81.421875 16.089844 C 81.550781 25.941406 81.429688 35.800781 81.484375 45.652344 C 74.558594 43.738281 66.996094 44.421875 60.425781 47.292969 Z M 60.425781 47.292969 " fill-opacity="1" fill-rule="nonzero"/></g><g fill="#050a30" fill-opacity="1"><g transform="translate(91.099343, 28.533733)"><g><path d="M 5.546875 -12.09375 C 4.929688 -11.550781 4.625 -10.070312 4.625 -7.65625 C 4.625 -5.238281 4.941406 -3.710938 5.578125 -3.078125 C 5.953125 -2.722656 6.566406 -2.546875 7.421875 -2.546875 C 8.273438 -2.546875 8.90625 -2.59375 9.3125 -2.6875 L 9.3125 -5.953125 L 7.09375 -6.109375 L 7.09375 -8.546875 L 12.609375 -8.546875 L 12.609375 -0.71875 C 11.992188 -0.457031 11.207031 -0.222656 10.25 -0.015625 C 9.289062 0.179688 8.410156 0.28125 7.609375 0.28125 C 6.816406 0.28125 6.117188 0.21875 5.515625 0.09375 C 4.921875 -0.03125 4.335938 -0.265625 3.765625 -0.609375 C 3.203125 -0.960938 2.726562 -1.421875 2.34375 -1.984375 C 1.5 -3.253906 1.078125 -5.144531 1.078125 -7.65625 C 1.078125 -10.800781 1.710938 -12.921875 2.984375 -14.015625 C 3.628906 -14.578125 4.335938 -14.960938 5.109375 -15.171875 C 5.890625 -15.390625 6.945312 -15.5 8.28125 -15.5 C 9.625 -15.5 11.0625 -15.3125 12.59375 -14.9375 L 12.203125 -12.1875 C 10.253906 -12.40625 8.734375 -12.515625 7.640625 -12.515625 C 6.554688 -12.515625 5.859375 -12.375 5.546875 -12.09375 Z M 5.546875 -12.09375 "/></g></g></g><g fill="#050a30" fill-opacity="1"><g transform="translate(103.818836, 28.533733)"><g><path d="M 10.09375 -0.0625 C 9.363281 0.164062 8.519531 0.28125 7.5625 0.28125 C 6.613281 0.28125 5.773438 0.164062 5.046875 -0.0625 C 4.316406 -0.289062 3.644531 -0.6875 3.03125 -1.25 C 1.726562 -2.40625 1.078125 -4.535156 1.078125 -7.640625 C 1.078125 -11.128906 1.972656 -13.4375 3.765625 -14.5625 C 4.734375 -15.1875 6.003906 -15.5 7.578125 -15.5 C 10.046875 -15.5 11.789062 -14.71875 12.8125 -13.15625 C 13.644531 -11.882812 14.0625 -10.046875 14.0625 -7.640625 C 14.0625 -4.535156 13.414062 -2.40625 12.125 -1.25 C 11.5 -0.6875 10.820312 -0.289062 10.09375 -0.0625 Z M 5.859375 -12.15625 C 5.460938 -11.925781 5.15625 -11.453125 4.9375 -10.734375 C 4.71875 -10.023438 4.609375 -8.984375 4.609375 -7.609375 C 4.609375 -6.234375 4.71875 -5.179688 4.9375 -4.453125 C 5.164062 -3.734375 5.476562 -3.257812 5.875 -3.03125 C 6.269531 -2.8125 6.832031 -2.703125 7.5625 -2.703125 C 8.300781 -2.703125 8.867188 -2.816406 9.265625 -3.046875 C 10.109375 -3.535156 10.53125 -5.050781 10.53125 -7.59375 C 10.53125 -10.164062 10.125 -11.6875 9.3125 -12.15625 C 8.90625 -12.394531 8.328125 -12.515625 7.578125 -12.515625 C 6.828125 -12.515625 6.253906 -12.394531 5.859375 -12.15625 Z M 5.859375 -12.15625 "/></g></g></g><g fill="#050a30" fill-opacity="1"><g transform="translate(117.533446, 28.533733)"><g><path d="M 10.09375 -0.0625 C 9.363281 0.164062 8.519531 0.28125 7.5625 0.28125 C 6.613281 0.28125 5.773438 0.164062 5.046875 -0.0625 C 4.316406 -0.289062 3.644531 -0.6875 3.03125 -1.25 C 1.726562 -2.40625 1.078125 -4.535156 1.078125 -7.640625 C 1.078125 -11.128906 1.972656 -13.4375 3.765625 -14.5625 C 4.734375 -15.1875 6.003906 -15.5 7.578125 -15.5 C 10.046875 -15.5 11.789062 -14.71875 12.8125 -13.15625 C 13.644531 -11.882812 14.0625 -10.046875 14.0625 -7.640625 C 14.0625 -4.535156 13.414062 -2.40625 12.125 -1.25 C 11.5 -0.6875 10.820312 -0.289062 10.09375 -0.0625 Z M 5.859375 -12.15625 C 5.460938 -11.925781 5.15625 -11.453125 4.9375 -10.734375 C 4.71875 -10.023438 4.609375 -8.984375 4.609375 -7.609375 C 4.609375 -6.234375 4.71875 -5.179688 4.9375 -4.453125 C 5.164062 -3.734375 5.476562 -3.257812 5.875 -3.03125 C 6.269531 -2.8125 6.832031 -2.703125 7.5625 -2.703125 C 8.300781 -2.703125 8.867188 -2.816406 9.265625 -3.046875 C 10.109375 -3.535156 10.53125 -5.050781 10.53125 -7.59375 C 10.53125 -10.164062 10.125 -11.6875 9.3125 -12.15625 C 8.90625 -12.394531 8.328125 -12.515625 7.578125 -12.515625 C 6.828125 -12.515625 6.253906 -12.394531 5.859375 -12.15625 Z M 5.859375 -12.15625 "/></g></g></g><g fill="#050a30" fill-opacity="1"><g transform="translate(131.248054, 28.533733)"><g><path d="M 6.96875 0.28125 C 5.988281 0.28125 4.265625 0.1875 1.796875 0 L 1.796875 -15.1875 C 4.242188 -15.394531 6.015625 -15.5 7.109375 -15.5 C 8.203125 -15.5 9.125 -15.359375 9.875 -15.078125 C 10.632812 -14.796875 11.238281 -14.425781 11.6875 -13.96875 C 12.132812 -13.507812 12.492188 -12.9375 12.765625 -12.25 C 13.242188 -11.09375 13.484375 -9.609375 13.484375 -7.796875 C 13.484375 -4.921875 12.910156 -2.851562 11.765625 -1.59375 C 10.628906 -0.34375 9.03125 0.28125 6.96875 0.28125 Z M 5.171875 -2.75 C 5.773438 -2.675781 6.46875 -2.640625 7.25 -2.640625 C 8.03125 -2.640625 8.570312 -2.773438 8.875 -3.046875 C 9.539062 -3.597656 9.875 -5.148438 9.875 -7.703125 C 9.875 -10.253906 9.5625 -11.765625 8.9375 -12.234375 C 8.625 -12.472656 8.066406 -12.59375 7.265625 -12.59375 L 5.171875 -12.46875 Z M 5.171875 -2.75 "/></g></g></g><g fill="#050a30" fill-opacity="1"><g transform="translate(144.376513, 28.533733)"><g/></g></g><g fill="#050a30" fill-opacity="1"><g transform="translate(131.149749, 41.473608)"><g><path d="M 7.296875 -15.5 C 10.722656 -15.5 12.4375 -14.0625 12.4375 -11.1875 C 12.4375 -10.394531 12.265625 -9.738281 11.921875 -9.21875 C 11.578125 -8.695312 11.160156 -8.316406 10.671875 -8.078125 L 10.671875 -7.9375 C 12.109375 -7.332031 12.828125 -6.242188 12.828125 -4.671875 C 12.828125 -2.785156 12.257812 -1.457031 11.125 -0.6875 C 10.125 -0.0390625 8.894531 0.28125 7.4375 0.28125 C 5.988281 0.28125 4.109375 0.144531 1.796875 -0.125 L 1.90625 -7.125 L 1.796875 -15.1875 C 4.003906 -15.394531 5.835938 -15.5 7.296875 -15.5 Z M 5.234375 -2.578125 C 6.097656 -2.492188 6.867188 -2.453125 7.546875 -2.453125 C 8.222656 -2.453125 8.6875 -2.613281 8.9375 -2.9375 C 9.1875 -3.269531 9.3125 -3.816406 9.3125 -4.578125 C 9.3125 -5.335938 9.132812 -5.859375 8.78125 -6.140625 C 8.425781 -6.429688 7.898438 -6.578125 7.203125 -6.578125 L 5.21875 -6.578125 Z M 5.1875 -9.21875 L 7.375 -9.21875 C 7.976562 -9.21875 8.394531 -9.351562 8.625 -9.625 C 8.863281 -9.90625 8.984375 -10.375 8.984375 -11.03125 C 8.984375 -11.695312 8.847656 -12.160156 8.578125 -12.421875 C 8.316406 -12.691406 7.867188 -12.828125 7.234375 -12.828125 L 5.1875 -12.75 Z M 5.1875 -9.21875 "/></g></g></g><g fill="#050a30" fill-opacity="1"><g transform="translate(143.890882, 41.473608)"><g><path d="M 10.09375 -0.0625 C 9.363281 0.164062 8.519531 0.28125 7.5625 0.28125 C 6.613281 0.28125 5.773438 0.164062 5.046875 -0.0625 C 4.316406 -0.289062 3.644531 -0.6875 3.03125 -1.25 C 1.726562 -2.40625 1.078125 -4.535156 1.078125 -7.640625 C 1.078125 -11.128906 1.972656 -13.4375 3.765625 -14.5625 C 4.734375 -15.1875 6.003906 -15.5 7.578125 -15.5 C 10.046875 -15.5 11.789062 -14.71875 12.8125 -13.15625 C 13.644531 -11.882812 14.0625 -10.046875 14.0625 -7.640625 C 14.0625 -4.535156 13.414062 -2.40625 12.125 -1.25 C 11.5 -0.6875 10.820312 -0.289062 10.09375 -0.0625 Z M 5.859375 -12.15625 C 5.460938 -11.925781 5.15625 -11.453125 4.9375 -10.734375 C 4.71875 -10.023438 4.609375 -8.984375 4.609375 -7.609375 C 4.609375 -6.234375 4.71875 -5.179688 4.9375 -4.453125 C 5.164062 -3.734375 5.476562 -3.257812 5.875 -3.03125 C 6.269531 -2.8125 6.832031 -2.703125 7.5625 -2.703125 C 8.300781 -2.703125 8.867188 -2.816406 9.265625 -3.046875 C 10.109375 -3.535156 10.53125 -5.050781 10.53125 -7.59375 C 10.53125 -10.164062 10.125 -11.6875 9.3125 -12.15625 C 8.90625 -12.394531 8.328125 -12.515625 7.578125 -12.515625 C 6.828125 -12.515625 6.253906 -12.394531 5.859375 -12.15625 Z M 5.859375 -12.15625 "/></g></g></g><g fill="#050a30" fill-opacity="1"><g transform="translate(157.605491, 41.473608)"><g><path d="M 10.09375 -0.0625 C 9.363281 0.164062 8.519531 0.28125 7.5625 0.28125 C 6.613281 0.28125 5.773438 0.164062 5.046875 -0.0625 C 4.316406 -0.289062 3.644531 -0.6875 3.03125 -1.25 C 1.726562 -2.40625 1.078125 -4.535156 1.078125 -7.640625 C 1.078125 -11.128906 1.972656 -13.4375 3.765625 -14.5625 C 4.734375 -15.1875 6.003906 -15.5 7.578125 -15.5 C 10.046875 -15.5 11.789062 -14.71875 12.8125 -13.15625 C 13.644531 -11.882812 14.0625 -10.046875 14.0625 -7.640625 C 14.0625 -4.535156 13.414062 -2.40625 12.125 -1.25 C 11.5 -0.6875 10.820312 -0.289062 10.09375 -0.0625 Z M 5.859375 -12.15625 C 5.460938 -11.925781 5.15625 -11.453125 4.9375 -10.734375 C 4.71875 -10.023438 4.609375 -8.984375 4.609375 -7.609375 C 4.609375 -6.234375 4.71875 -5.179688 4.9375 -4.453125 C 5.164062 -3.734375 5.476562 -3.257812 5.875 -3.03125 C 6.269531 -2.8125 6.832031 -2.703125 7.5625 -2.703125 C 8.300781 -2.703125 8.867188 -2.816406 9.265625 -3.046875 C 10.109375 -3.535156 10.53125 -5.050781 10.53125 -7.59375 C 10.53125 -10.164062 10.125 -11.6875 9.3125 -12.15625 C 8.90625 -12.394531 8.328125 -12.515625 7.578125 -12.515625 C 6.828125 -12.515625 6.253906 -12.394531 5.859375 -12.15625 Z M 5.859375 -12.15625 "/></g></g></g><g fill="#050a30" fill-opacity="1"><g transform="translate(171.3201, 41.473608)"><g><path d="M 10.6875 0 L 5.265625 -7.984375 L 10.15625 -15.21875 L 14.28125 -15.21875 L 8.828125 -8.09375 L 8.828125 -7.96875 L 14.90625 0 Z M 5.21875 -15.21875 L 5.21875 0 L 1.796875 0 L 1.859375 -7.75 L 1.796875 -15.21875 Z M 5.21875 -15.21875 "/></g></g></g><g fill="#050a30" fill-opacity="1"><g transform="translate(184.251896, 41.473608)"><g/></g></g><path stroke-linecap="butt" transform="matrix(2.257006, 0, 0, 2.217205, 151.408448, 18.813458)" fill="none" stroke-linejoin="miter" d="M 0.000756839 -0.000431972 L 12.572719 -0.000431972 " stroke="#050a30" stroke-width="1" stroke-opacity="1" stroke-miterlimit="4"/><path stroke-linecap="butt" transform="matrix(2.257006, 0, 0, 2.217205, 99.214324, 34.393677)" fill="none" stroke-linejoin="miter" d="M 0.000230303 0.000385143 L 12.572192 0.000385143 " stroke="#050a30" stroke-width="1" stroke-opacity="1" stroke-miterlimit="4"/></svg>