<svg xmlns="http://www.w3.org/2000/svg" xmlns:xlink="http://www.w3.org/1999/xlink" width="500" zoomAndPan="magnify" viewBox="0 0 375 374.999991" height="500" preserveAspectRatio="xMidYMid meet" version="1.0"><defs><g/><clipPath id="3702bc8277"><path d="M 49.09375 147.300781 L 144 147.300781 L 144 227.550781 L 49.09375 227.550781 Z M 49.09375 147.300781 " clip-rule="nonzero"/></clipPath></defs><g clip-path="url(#3702bc8277)"><path fill="#1b68ff" d="M 143.648438 167.941406 C 143.519531 165.707031 144.34375 163.210938 142.851562 161.269531 C 140.246094 160.554688 137.644531 159.828125 135.027344 159.191406 C 134.890625 155.960938 135.148438 152.722656 134.910156 149.5 C 134.53125 147.304688 131.847656 148.070312 130.289062 148.050781 C 116.796875 148.726562 104.359375 156.335938 96.421875 167.027344 C 87.886719 155.441406 73.894531 147.453125 59.246094 148.050781 C 58.953125 148.296875 58.363281 148.792969 58.0625 149.039062 C 57.617188 152.386719 58.039062 155.804688 57.859375 159.179688 C 54.890625 160.375 50.503906 160.1875 49.09375 163.59375 C 49.648438 164.941406 49.777344 166.398438 49.71875 167.847656 C 49.589844 184.941406 49.835938 202.027344 49.597656 219.113281 C 49.375 220.402344 49.613281 222.675781 51.46875 222.277344 C 57.464844 220.101562 63.921875 219.320312 70.285156 219.6875 C 78.933594 220.359375 87.910156 222.378906 95.019531 227.542969 C 95.710938 227.542969 97.089844 227.542969 97.773438 227.550781 C 101.707031 224.542969 106.476562 222.90625 111.191406 221.550781 C 121.289062 218.730469 132.195312 218.996094 142.125 222.378906 C 144.242188 222.019531 143.671875 219.703125 143.691406 218.167969 C 143.597656 201.429688 143.675781 184.6875 143.648438 167.941406 Z M 53.328125 217.648438 C 53.378906 200 53.320312 182.339844 53.351562 164.695312 C 54.867188 164.15625 56.390625 163.621094 57.910156 163.089844 C 57.878906 177.1875 57.886719 191.28125 57.902344 205.375 C 57.707031 207.941406 60.921875 207.488281 62.597656 207.652344 C 72.605469 208.070312 81.714844 213.140625 88.984375 219.726562 C 77.761719 215.210938 64.984375 214.1875 53.328125 217.648438 Z M 102.179688 220.628906 C 107.726562 215.21875 114.125 210.363281 121.730469 208.273438 C 125.644531 206.953125 129.792969 206.824219 133.863281 206.441406 C 135.179688 206.28125 134.90625 204.644531 135.003906 203.722656 C 134.992188 190.242188 134.984375 176.761719 134.992188 163.277344 C 136.625 163.773438 138.261719 164.265625 139.902344 164.742188 C 140.132812 182.394531 139.910156 200.050781 140.011719 217.699219 C 127.570312 214.265625 113.980469 215.492188 102.179688 220.628906 Z M 102.179688 220.628906 " fill-opacity="1" fill-rule="nonzero"/></g><g fill="#ffffff" fill-opacity="1"><g transform="translate(157.17064, 187.898558)"><g><path d="M 9.9375 -21.703125 C 8.851562 -20.722656 8.3125 -18.0625 8.3125 -13.71875 C 8.3125 -9.382812 8.878906 -6.648438 10.015625 -5.515625 C 10.691406 -4.890625 11.789062 -4.578125 13.3125 -4.578125 C 14.84375 -4.578125 15.972656 -4.65625 16.703125 -4.8125 L 16.703125 -10.671875 L 12.734375 -10.953125 L 12.734375 -15.34375 L 22.640625 -15.34375 L 22.640625 -1.28125 C 21.523438 -0.8125 20.101562 -0.394531 18.375 -0.03125 C 16.65625 0.320312 15.082031 0.5 13.65625 0.5 C 12.238281 0.5 10.992188 0.390625 9.921875 0.171875 C 8.847656 -0.046875 7.796875 -0.472656 6.765625 -1.109375 C 5.742188 -1.742188 4.882812 -2.566406 4.1875 -3.578125 C 2.6875 -5.847656 1.9375 -9.238281 1.9375 -13.75 C 1.9375 -19.382812 3.078125 -23.1875 5.359375 -25.15625 C 6.523438 -26.164062 7.800781 -26.859375 9.1875 -27.234375 C 10.570312 -27.609375 12.46875 -27.796875 14.875 -27.796875 C 17.28125 -27.796875 19.851562 -27.460938 22.59375 -26.796875 L 21.90625 -21.859375 C 18.40625 -22.242188 15.675781 -22.4375 13.71875 -22.4375 C 11.769531 -22.4375 10.507812 -22.191406 9.9375 -21.703125 Z M 9.9375 -21.703125 "/></g></g></g><g fill="#ffffff" fill-opacity="1"><g transform="translate(179.998235, 187.898558)"><g><path d="M 18.109375 -0.109375 C 16.804688 0.296875 15.300781 0.5 13.59375 0.5 C 11.882812 0.5 10.375 0.296875 9.0625 -0.109375 C 7.757812 -0.523438 6.550781 -1.238281 5.4375 -2.25 C 3.101562 -4.320312 1.9375 -8.140625 1.9375 -13.703125 C 1.9375 -19.972656 3.539062 -24.113281 6.75 -26.125 C 8.488281 -27.238281 10.769531 -27.796875 13.59375 -27.796875 C 18.019531 -27.796875 21.148438 -26.398438 22.984375 -23.609375 C 24.484375 -21.328125 25.234375 -18.023438 25.234375 -13.703125 C 25.234375 -8.140625 24.070312 -4.320312 21.75 -2.25 C 20.632812 -1.238281 19.421875 -0.523438 18.109375 -0.109375 Z M 10.5 -21.8125 C 9.789062 -21.40625 9.238281 -20.5625 8.84375 -19.28125 C 8.457031 -18 8.265625 -16.117188 8.265625 -13.640625 C 8.265625 -11.171875 8.460938 -9.289062 8.859375 -8 C 9.265625 -6.707031 9.820312 -5.859375 10.53125 -5.453125 C 11.25 -5.054688 12.265625 -4.859375 13.578125 -4.859375 C 14.898438 -4.859375 15.914062 -5.0625 16.625 -5.46875 C 18.144531 -6.351562 18.90625 -9.070312 18.90625 -13.625 C 18.90625 -18.238281 18.171875 -20.972656 16.703125 -21.828125 C 15.972656 -22.234375 14.9375 -22.4375 13.59375 -22.4375 C 12.25 -22.4375 11.21875 -22.226562 10.5 -21.8125 Z M 10.5 -21.8125 "/></g></g></g><g fill="#ffffff" fill-opacity="1"><g transform="translate(204.611752, 187.898558)"><g><path d="M 18.109375 -0.109375 C 16.804688 0.296875 15.300781 0.5 13.59375 0.5 C 11.882812 0.5 10.375 0.296875 9.0625 -0.109375 C 7.757812 -0.523438 6.550781 -1.238281 5.4375 -2.25 C 3.101562 -4.320312 1.9375 -8.140625 1.9375 -13.703125 C 1.9375 -19.972656 3.539062 -24.113281 6.75 -26.125 C 8.488281 -27.238281 10.769531 -27.796875 13.59375 -27.796875 C 18.019531 -27.796875 21.148438 -26.398438 22.984375 -23.609375 C 24.484375 -21.328125 25.234375 -18.023438 25.234375 -13.703125 C 25.234375 -8.140625 24.070312 -4.320312 21.75 -2.25 C 20.632812 -1.238281 19.421875 -0.523438 18.109375 -0.109375 Z M 10.5 -21.8125 C 9.789062 -21.40625 9.238281 -20.5625 8.84375 -19.28125 C 8.457031 -18 8.265625 -16.117188 8.265625 -13.640625 C 8.265625 -11.171875 8.460938 -9.289062 8.859375 -8 C 9.265625 -6.707031 9.820312 -5.859375 10.53125 -5.453125 C 11.25 -5.054688 12.265625 -4.859375 13.578125 -4.859375 C 14.898438 -4.859375 15.914062 -5.0625 16.625 -5.46875 C 18.144531 -6.351562 18.90625 -9.070312 18.90625 -13.625 C 18.90625 -18.238281 18.171875 -20.972656 16.703125 -21.828125 C 15.972656 -22.234375 14.9375 -22.4375 13.59375 -22.4375 C 12.25 -22.4375 11.21875 -22.226562 10.5 -21.8125 Z M 10.5 -21.8125 "/></g></g></g><g fill="#ffffff" fill-opacity="1"><g transform="translate(229.225268, 187.898558)"><g><path d="M 12.5 0.5 C 10.738281 0.5 7.644531 0.332031 3.21875 0 L 3.21875 -27.25 C 7.625 -27.613281 10.800781 -27.796875 12.75 -27.796875 C 14.707031 -27.796875 16.363281 -27.539062 17.71875 -27.03125 C 19.082031 -26.53125 20.164062 -25.875 20.96875 -25.0625 C 21.769531 -24.25 22.414062 -23.222656 22.90625 -21.984375 C 23.757812 -19.910156 24.1875 -17.242188 24.1875 -13.984375 C 24.1875 -8.828125 23.164062 -5.125 21.125 -2.875 C 19.082031 -0.625 16.207031 0.5 12.5 0.5 Z M 9.28125 -4.9375 C 10.363281 -4.800781 11.601562 -4.734375 13 -4.734375 C 14.40625 -4.734375 15.378906 -4.976562 15.921875 -5.46875 C 17.109375 -6.457031 17.703125 -9.242188 17.703125 -13.828125 C 17.703125 -18.410156 17.144531 -21.113281 16.03125 -21.9375 C 15.46875 -22.375 14.472656 -22.59375 13.046875 -22.59375 L 9.28125 -22.359375 Z M 9.28125 -4.9375 "/></g></g></g><g fill="#ffffff" fill-opacity="1"><g transform="translate(252.783915, 187.898558)"><g/></g></g><g fill="#ffffff" fill-opacity="1"><g transform="translate(229.043778, 211.120035)"><g><path d="M 13.078125 -27.796875 C 19.242188 -27.796875 22.328125 -25.222656 22.328125 -20.078125 C 22.328125 -18.648438 22.015625 -17.46875 21.390625 -16.53125 C 20.773438 -15.601562 20.023438 -14.921875 19.140625 -14.484375 L 19.140625 -14.25 C 21.734375 -13.164062 23.03125 -11.210938 23.03125 -8.390625 C 23.03125 -4.992188 22.003906 -2.613281 19.953125 -1.25 C 18.171875 -0.0820312 15.972656 0.5 13.359375 0.5 C 10.742188 0.5 7.363281 0.253906 3.21875 -0.234375 L 3.421875 -12.78125 L 3.21875 -27.25 C 7.175781 -27.613281 10.460938 -27.796875 13.078125 -27.796875 Z M 9.390625 -4.625 C 10.941406 -4.46875 12.328125 -4.390625 13.546875 -4.390625 C 14.765625 -4.390625 15.59375 -4.6875 16.03125 -5.28125 C 16.476562 -5.875 16.703125 -6.847656 16.703125 -8.203125 C 16.703125 -9.566406 16.382812 -10.503906 15.75 -11.015625 C 15.113281 -11.535156 14.175781 -11.796875 12.9375 -11.796875 L 9.359375 -11.796875 Z M 9.3125 -16.546875 L 13.234375 -16.546875 C 14.328125 -16.546875 15.078125 -16.789062 15.484375 -17.28125 C 15.898438 -17.769531 16.109375 -18.609375 16.109375 -19.796875 C 16.109375 -20.992188 15.867188 -21.832031 15.390625 -22.3125 C 14.910156 -22.789062 14.101562 -23.03125 12.96875 -23.03125 L 9.3125 -22.875 Z M 9.3125 -16.546875 "/></g></g></g><g fill="#ffffff" fill-opacity="1"><g transform="translate(251.910204, 211.120035)"><g><path d="M 18.109375 -0.109375 C 16.804688 0.296875 15.300781 0.5 13.59375 0.5 C 11.882812 0.5 10.375 0.296875 9.0625 -0.109375 C 7.757812 -0.523438 6.550781 -1.238281 5.4375 -2.25 C 3.101562 -4.320312 1.9375 -8.140625 1.9375 -13.703125 C 1.9375 -19.972656 3.539062 -24.113281 6.75 -26.125 C 8.488281 -27.238281 10.769531 -27.796875 13.59375 -27.796875 C 18.019531 -27.796875 21.148438 -26.398438 22.984375 -23.609375 C 24.484375 -21.328125 25.234375 -18.023438 25.234375 -13.703125 C 25.234375 -8.140625 24.070312 -4.320312 21.75 -2.25 C 20.632812 -1.238281 19.421875 -0.523438 18.109375 -0.109375 Z M 10.5 -21.8125 C 9.789062 -21.40625 9.238281 -20.5625 8.84375 -19.28125 C 8.457031 -18 8.265625 -16.117188 8.265625 -13.640625 C 8.265625 -11.171875 8.460938 -9.289062 8.859375 -8 C 9.265625 -6.707031 9.820312 -5.859375 10.53125 -5.453125 C 11.25 -5.054688 12.265625 -4.859375 13.578125 -4.859375 C 14.898438 -4.859375 15.914062 -5.0625 16.625 -5.46875 C 18.144531 -6.351562 18.90625 -9.070312 18.90625 -13.625 C 18.90625 -18.238281 18.171875 -20.972656 16.703125 -21.828125 C 15.972656 -22.234375 14.9375 -22.4375 13.59375 -22.4375 C 12.25 -22.4375 11.21875 -22.226562 10.5 -21.8125 Z M 10.5 -21.8125 "/></g></g></g><g fill="#ffffff" fill-opacity="1"><g transform="translate(276.52372, 211.120035)"><g><path d="M 18.109375 -0.109375 C 16.804688 0.296875 15.300781 0.5 13.59375 0.5 C 11.882812 0.5 10.375 0.296875 9.0625 -0.109375 C 7.757812 -0.523438 6.550781 -1.238281 5.4375 -2.25 C 3.101562 -4.320312 1.9375 -8.140625 1.9375 -13.703125 C 1.9375 -19.972656 3.539062 -24.113281 6.75 -26.125 C 8.488281 -27.238281 10.769531 -27.796875 13.59375 -27.796875 C 18.019531 -27.796875 21.148438 -26.398438 22.984375 -23.609375 C 24.484375 -21.328125 25.234375 -18.023438 25.234375 -13.703125 C 25.234375 -8.140625 24.070312 -4.320312 21.75 -2.25 C 20.632812 -1.238281 19.421875 -0.523438 18.109375 -0.109375 Z M 10.5 -21.8125 C 9.789062 -21.40625 9.238281 -20.5625 8.84375 -19.28125 C 8.457031 -18 8.265625 -16.117188 8.265625 -13.640625 C 8.265625 -11.171875 8.460938 -9.289062 8.859375 -8 C 9.265625 -6.707031 9.820312 -5.859375 10.53125 -5.453125 C 11.25 -5.054688 12.265625 -4.859375 13.578125 -4.859375 C 14.898438 -4.859375 15.914062 -5.0625 16.625 -5.46875 C 18.144531 -6.351562 18.90625 -9.070312 18.90625 -13.625 C 18.90625 -18.238281 18.171875 -20.972656 16.703125 -21.828125 C 15.972656 -22.234375 14.9375 -22.4375 13.59375 -22.4375 C 12.25 -22.4375 11.21875 -22.226562 10.5 -21.8125 Z M 10.5 -21.8125 "/></g></g></g><g fill="#ffffff" fill-opacity="1"><g transform="translate(301.137236, 211.120035)"><g><path d="M 19.1875 0 L 9.4375 -14.328125 L 18.203125 -27.296875 L 25.625 -27.296875 L 15.84375 -14.515625 L 15.84375 -14.28125 L 26.75 0 Z M 9.359375 -27.296875 L 9.359375 0 L 3.21875 0 L 3.34375 -13.90625 L 3.21875 -27.296875 Z M 9.359375 -27.296875 "/></g></g></g><g fill="#ffffff" fill-opacity="1"><g transform="translate(324.352366, 211.120035)"><g/></g></g><path stroke-linecap="butt" transform="matrix(3.728263, 0, 0, 4.149856, 265.399381, 169.752704)" fill="none" stroke-linejoin="miter" d="M -0.000253194 0.000289696 L 13.479968 0.000289696 " stroke="#ffffff" stroke-width="1" stroke-opacity="1" stroke-miterlimit="4"/><path stroke-linecap="butt" transform="matrix(3.728263, 0, 0, 4.149856, 171.733515, 197.712438)" fill="none" stroke-linejoin="miter" d="M 0.000230718 -0.000361631 L 13.479405 -0.000361631 " stroke="#ffffff" stroke-width="1" stroke-opacity="1" stroke-miterlimit="4"/></svg>