<svg xmlns="http://www.w3.org/2000/svg" xmlns:xlink="http://www.w3.org/1999/xlink" width="500" zoomAndPan="magnify" viewBox="0 0 375 374.999991" height="500" preserveAspectRatio="xMidYMid meet" version="1.0"><defs><clipPath id="d3d6b5e65e"><path d="M 32.761719 63 L 341 63 L 341 323.628906 L 32.761719 323.628906 Z M 32.761719 63 " clip-rule="nonzero"/></clipPath></defs><g clip-path="url(#d3d6b5e65e)"><path fill="#1b68ff" d="M 340.253906 129.199219 C 339.835938 121.914062 342.507812 113.773438 337.667969 107.4375 C 329.1875 105.101562 320.730469 102.738281 312.222656 100.65625 C 311.773438 90.121094 312.609375 79.558594 311.835938 69.054688 C 310.609375 61.882812 301.878906 64.382812 296.8125 64.328125 C 252.925781 66.523438 212.488281 91.34375 186.675781 126.222656 C 158.917969 88.425781 113.417969 62.378906 65.773438 64.324219 C 64.828125 65.128906 62.910156 66.742188 61.933594 67.546875 C 60.484375 78.46875 61.851562 89.617188 61.265625 100.621094 C 51.617188 104.515625 37.355469 103.90625 32.761719 115.023438 C 34.570312 119.417969 34.992188 124.167969 34.792969 128.894531 C 34.375 184.644531 35.179688 240.375 34.402344 296.105469 C 33.679688 300.300781 34.457031 307.722656 40.492188 306.417969 C 59.988281 299.332031 80.984375 296.773438 101.675781 297.96875 C 129.796875 300.164062 159 306.753906 182.109375 323.59375 C 184.363281 323.59375 188.839844 323.59375 191.0625 323.621094 C 203.855469 313.808594 219.375 308.476562 234.699219 304.054688 C 267.546875 294.855469 303.007812 295.714844 335.292969 306.75 C 342.191406 305.585938 340.328125 298.023438 340.386719 293.019531 C 340.089844 238.429688 340.339844 183.8125 340.253906 129.199219 Z M 46.53125 291.320312 C 46.699219 233.757812 46.503906 176.164062 46.613281 118.605469 C 51.535156 116.855469 56.488281 115.105469 61.4375 113.382812 C 61.328125 159.351562 61.355469 205.328125 61.410156 251.296875 C 60.773438 259.664062 71.230469 258.1875 76.683594 258.71875 C 109.222656 260.078125 138.839844 276.617188 162.484375 298.101562 C 125.988281 283.371094 84.4375 280.035156 46.53125 291.320312 Z M 205.390625 301.050781 C 223.441406 283.398438 244.246094 267.5625 268.972656 260.746094 C 281.710938 256.4375 295.195312 256.023438 308.4375 254.769531 C 312.71875 254.242188 311.828125 248.910156 312.136719 245.90625 C 312.109375 201.933594 312.082031 157.964844 312.109375 113.992188 C 317.417969 115.601562 322.734375 117.214844 328.070312 118.769531 C 328.824219 176.332031 328.097656 233.925781 328.429688 291.484375 C 287.96875 280.285156 243.777344 284.289062 205.390625 301.050781 Z M 205.390625 301.050781 " fill-opacity="1" fill-rule="nonzero"/></g></svg>